#!OML:ASF I:\Actors\actors\Patient Classification 2\Patient 1\Session 1\actor1.ASF
:FULLY-SPECIFIED
:DEGREES

431
root -0.642461 18.1145 6.01115 4.13323 -23.724 -2.10051
lowerback 0.453472 -4.03037 0.646519
upperback -2.82408 -5.32692 2.00518
thorax -3.02364 -2.65333 1.85888
lowerneck -10.7107 1.24641 8.58994
upperneck 22.1997 -0.923382 3.17532
head 8.74719 0.537481 -0.468123
rclavicle -9.69075e-016 7.15625e-015
rhumerus -23.1983 59.5336 -75.8446
rradius 111.605
rwrist -23.2158
rhand -5.25756 -33.4434
rfingers 7.12502
rthumb 20.5459 -62.3762
lclavicle -9.69075e-016 7.15625e-015
lhumerus 6.92317 3.03336 65.8628
lradius 101.502
lwrist 70.6245
lhand -34.3976 -14.9046
lfingers 7.12502
lthumb -7.56332 14.9402
rfemur 9.18194 12.5002 14.3843
rtibia -17.8221
rfoot -0.125089 -8.13193
rtoes -2.22514
lfemur 11.8431 12.7661 -13.0674
ltibia -2.8625e-014
lfoot -17.0256 14.3587
ltoes 1.76891
432
root -0.646526 18.1156 6.00703 4.08332 -23.1704 -2.02022
lowerback 0.488532 -3.82478 0.777459
upperback -2.88121 -5.04711 2.03264
thorax -3.11815 -2.51591 1.81267
lowerneck -10.7866 1.05521 8.17919
upperneck 21.9032 -1.05829 3.06743
head 8.64885 0.422663 -0.451545
rclavicle 2.13942e-014 2.98177e-014
rhumerus -25.6392 58.4218 -79.2261
rradius 110.661
rwrist -21.9414
rhand -5.04843 -32.7384
rfingers 7.12502
rthumb 20.7469 -61.6493
lclavicle 2.13942e-014 2.98177e-014
lhumerus 6.45639 2.26926 65.1413
lradius 103.161
lwrist 70.0095
lhand -34.222 -15.2897
lfingers 7.12502
lthumb -7.39382 14.5611
rfemur 9.27087 12.2447 14.3626
rtibia -17.7266
rfoot -0.380803 -8.29381
rtoes -1.70267
lfemur 11.7194 12.2295 -13.1377
ltibia 1.59028e-014
lfoot -17.0129 14.4167
ltoes 1.427
433
root -0.651282 18.1162 6.00424 4.035 -22.5454 -2.01366
lowerback 0.538635 -3.63862 0.947645
upperback -2.94153 -4.7907 2.10391
thorax -3.22262 -2.39079 1.79084
lowerneck -10.9243 0.837617 7.73354
upperneck 21.7071 -1.23565 2.95323
head 8.5963 0.289285 -0.43532
rclavicle 4.7932e-014 -9.54166e-015
rhumerus -27.8352 57.2622 -82.2737
rradius 109.764
rwrist -20.7517
rhand -4.9445 -31.8987
rfingers 7.12502
rthumb 20.8467 -60.7987
lclavicle 4.7932e-014 -9.54166e-015
lhumerus 5.92971 1.58751 64.538
lradius 104.816
lwrist 69.4715
lhand -33.9763 -15.4725
lfingers 7.12502
lthumb -7.15667 14.3865
rfemur 9.40163 11.9824 14.4319
rtibia -17.6062
rfoot -0.697481 -8.46865
rtoes -1.35126
lfemur 11.6026 11.6222 -13.1262
ltibia -1.74931e-014
lfoot -16.945 14.5605
ltoes 0.611839
434
root -0.655894 18.1179 6.00226 3.9972 -21.8474 -1.98898
lowerback 0.562647 -3.47451 1.12358
upperback -3.02389 -4.5637 2.16097
thorax -3.33551 -2.28093 1.75063
lowerneck -11.0061 0.592186 7.33189
upperneck 21.5582 -1.44302 2.77032
head 8.54914 0.139353 -0.452451
rclavicle 1.15668e-014 -1.66979e-014
rhumerus -29.8924 56.0659 -85.1241
rradius 108.897
rwrist -19.4983
rhand -5.21493 -30.8256
rfingers 7.12502
rthumb 20.5869 -59.754
lclavicle 1.15668e-014 -1.66979e-014
lhumerus 5.34486 0.897097 63.9439
lradius 106.462
lwrist 68.8406
lhand -33.8005 -15.9012
lfingers 7.12502
lthumb -6.98697 13.9634
rfemur 9.51957 11.6468 14.4828
rtibia -17.4599
rfoot -1.02616 -8.62702
rtoes -1.17754
lfemur 11.4393 10.9504 -13.1425
ltibia 4.77083e-015
lfoot -16.8338 14.7635
ltoes -0.471198
435
root -0.659998 18.1197 6.00047 3.95802 -21.1177 -1.94271
lowerback 0.450767 -3.30967 1.34324
upperback -3.04026 -4.34048 2.15768
thorax -3.31043 -2.17553 1.61168
lowerneck -11.0843 0.342792 6.93602
upperneck 21.414 -1.67025 2.64208
head 8.50463 -0.013795 -0.453874
rclavicle -7.70291e-014 1.03368e-014
rhumerus -31.5993 54.8155 -87.6406
rradius 108.064
rwrist -18.3951
rhand -7.58739 -28.2792
rfingers 7.12502
rthumb 18.3058 -57.4379
lclavicle -7.70291e-014 1.03368e-014
lhumerus 4.83123 0.228935 63.3329
lradius 108.083
lwrist 68.1072
lhand -33.6553 -16.5405
lfingers 7.12502
lthumb -6.84681 13.3288
rfemur 9.63612 11.3967 14.5097
rtibia -17.304
rfoot -1.41069 -8.8906
rtoes -0.877613
lfemur 11.2634 10.2439 -13.188
ltibia -3.49861e-014
lfoot -16.6639 14.9368
ltoes -1.56455
436
root -0.663063 18.1199 5.99789 3.84407 -20.3708 -1.87872
lowerback 0.349497 -3.14945 1.59349
upperback -2.96865 -4.12542 2.11973
thorax -3.20326 -2.07515 1.41776
lowerneck -11.3396 0.0781501 6.36595
upperneck 21.359 -1.95079 2.72084
head 8.52712 -0.179859 -0.362974
rclavicle 7.12395e-014 1.98785e-015
rhumerus -32.8357 53.6245 -89.6993
rradius 107.272
rwrist -17.4889
rhand -4.8956 -29.337
rfingers 7.12502
rthumb 20.8937 -58.2318
lclavicle 7.12395e-014 1.98785e-015
lhumerus 4.40679 -0.345172 62.7556
lradius 109.655
lwrist 67.4458
lhand -33.4806 -17.3388
lfingers 7.12502
lthumb -6.67817 12.5359
rfemur 9.83221 11.2348 14.5324
rtibia -17.1459
rfoot -1.87186 -9.224
rtoes -0.641663
lfemur 11.1617 9.51179 -13.2417
ltibia -1.59028e-015
lfoot -16.475 15.0641
ltoes -2.52153
437
root -0.666484 18.1188 5.99353 3.69005 -19.6338 -1.85619
lowerback 0.387954 -3.00069 1.8014
upperback -2.90626 -3.92092 2.15862
thorax -3.17411 -1.97752 1.33585
lowerneck -11.6249 -0.181695 5.69199
upperneck 21.3392 -2.20283 2.79345
head 8.56992 -0.339618 -0.254432
rclavicle 6.13748e-015 -2.5842e-014
rhumerus -33.8518 52.6077 -91.3769
rradius 106.511
rwrist -16.5205
rhand -4.28086 -28.8266
rfingers 7.12502
rthumb 21.4842 -57.6552
lclavicle 6.13748e-015 -2.5842e-014
lhumerus 3.91454 -0.792529 62.3247
lradius 111.153
lwrist 66.6681
lhand -33.2368 -17.9752
lfingers 7.12502
lthumb -6.44284 11.9068
rfemur 10.0813 11.0724 14.6133
rtibia -16.984
rfoot -2.33544 -9.5263
rtoes -0.720889
lfemur 11.1165 8.78341 -13.2398
ltibia 7.95139e-015
lfoot -16.2936 15.2036
ltoes -3.40071
438
root -0.670433 18.1184 5.98881 3.57638 -18.919 -1.88457
lowerback 0.428665 -2.84264 2.03838
upperback -2.89719 -3.70234 2.18898
thorax -3.20281 -1.87394 1.23069
lowerneck -11.7728 -0.424028 5.21736
upperneck 21.2955 -2.43274 2.75333
head 8.57909 -0.487207 -0.214153
rclavicle 3.47376e-014 1.19271e-015
rhumerus -34.8817 51.5593 -92.9972
rradius 105.748
rwrist -15.3623
rhand -6.7571 -26.479
rfingers 7.12502
rthumb 19.1044 -55.5607
lclavicle 3.47376e-014 1.19271e-015
lhumerus 3.33316 -1.22594 61.932
lradius 112.558
lwrist 65.7705
lhand -32.9112 -18.5316
lfingers 7.12502
lthumb -6.12853 11.3598
rfemur 10.2916 10.8468 14.7432
rtibia -16.8204
rfoot -2.73203 -9.76849
rtoes -0.936695
lfemur 11.0503 8.07999 -13.1847
ltibia -1.59028e-014
lfoot -16.123 15.3347
ltoes -4.16865
